<?xml version="1.0" encoding="utf-8"?>
<!-- Generator: Adobe Illustrator 16.0.0, SVG Export Plug-In . SVG Version: 6.00 Build 0)  -->
<!DOCTYPE svg PUBLIC "-//W3C//DTD SVG 1.1//EN" "http://www.w3.org/Graphics/SVG/1.1/DTD/svg11.dtd">
<svg version="1.1" id="Layer_1" xmlns="http://www.w3.org/2000/svg" xmlns:xlink="http://www.w3.org/1999/xlink" x="0px" y="0px"
	 width="177px" height="165px" viewBox="0 0 177 165" enable-background="new 0 0 177 165" xml:space="preserve">
<g>
	<path fill="#FFFFFF" d="M62.675,16.084c0,0-2.716,18.24,4.397,32.037c8.06,15.636,24.815,7.642,17.736-8.461
		C78.56,25.45,62.675,16.084,62.675,16.084z"/>
	<path fill="#FFFFFF" d="M29.868,54.194c0,0,12.024,13.983,27.112,17.625c17.1,4.129,22.012-13.776,5.198-18.952
		C47.342,48.302,29.868,54.194,29.868,54.194z"/>
	<g id="XMLID_3_">
		<polyline id="XMLID_4_" fill="#FFFFFF" points="77.984,99.802 80.827,70.299 75.258,70.299 75.258,64.617 80.602,64.617 
			80.611,58.591 86.514,58.591 86.514,99.802 		"/>
	</g>
	<path fill="#FFFFFF" d="M113.589,16.084c0,0,2.718,18.24-4.396,32.037c-8.06,15.636-24.817,7.642-17.735-8.461
		C97.704,25.45,113.589,16.084,113.589,16.084z"/>
	<path fill="#FFFFFF" d="M146.396,54.194c0,0-12.022,13.983-27.11,17.625c-17.101,4.129-22.011-13.776-5.198-18.952
		C128.923,48.302,146.396,54.194,146.396,54.194z"/>
	<g id="XMLID_1_">
		<polyline id="XMLID_2_" fill="#FFFFFF" points="98.282,99.802 95.438,70.299 101.008,70.299 101.008,64.617 95.665,64.617 
			95.652,58.591 89.752,58.591 89.752,99.802 		"/>
	</g>
</g>
<g>
	<g>
		<path fill="#FFFFFF" d="M63.314,113.107h-3.449v9.562h-1.79v-9.562H54.62v-1.498h8.694V113.107z"/>
	</g>
	<g>
		<path fill="#FFFFFF" d="M73.266,122.67h-1.603c-0.319,0-0.549-0.125-0.692-0.371l-2.581-3.722
			c-0.087-0.129-0.183-0.22-0.283-0.277c-0.103-0.058-0.257-0.084-0.462-0.084h-0.997v4.454H64.85v-11.061h3.257
			c0.726,0,1.352,0.074,1.877,0.224c0.524,0.147,0.956,0.36,1.294,0.634c0.337,0.274,0.587,0.602,0.748,0.987
			c0.162,0.385,0.242,0.81,0.242,1.28c0,0.386-0.058,0.744-0.172,1.076c-0.117,0.332-0.281,0.633-0.499,0.905
			c-0.219,0.271-0.486,0.507-0.804,0.708c-0.315,0.198-0.678,0.355-1.082,0.467c0.22,0.133,0.41,0.322,0.568,0.562L73.266,122.67z
			 M68.059,116.91c0.41,0,0.769-0.051,1.076-0.15c0.308-0.101,0.563-0.238,0.769-0.418c0.204-0.18,0.358-0.395,0.459-0.641
			c0.103-0.249,0.154-0.526,0.154-0.827c0-0.604-0.198-1.063-0.599-1.382c-0.398-0.318-1.003-0.477-1.811-0.477h-1.459v3.895H68.059
			z"/>
	</g>
	<g>
		<path fill="#FFFFFF" d="M81.507,121.219L81.5,122.67h-6.897v-11.061H81.5v1.451h-5.092v3.334h4.07v1.404h-4.07v3.419
			L81.507,121.219L81.507,121.219z"/>
	</g>
	<g>
		<path fill="#FFFFFF" d="M90.352,121.219l-0.006,1.451H83.45v-11.061h6.896v1.451h-5.092v3.334h4.07v1.404h-4.07v3.419
			L90.352,121.219L90.352,121.219z"/>
	</g>
	<g>
		<path fill="#FFFFFF" d="M103.27,113.107H99.82v9.562h-1.788v-9.562h-3.455v-1.498h8.692V113.107L103.27,113.107z"/>
	</g>
	<g>
		<path fill="#FFFFFF" d="M114.768,117.141c0,0.817-0.135,1.572-0.4,2.267c-0.264,0.69-0.641,1.286-1.124,1.782
			c-0.484,0.5-1.065,0.891-1.744,1.172c-0.679,0.283-1.433,0.424-2.263,0.424c-0.822,0-1.574-0.141-2.252-0.424
			c-0.68-0.281-1.262-0.672-1.75-1.172c-0.483-0.496-0.859-1.092-1.127-1.782c-0.267-0.693-0.398-1.448-0.398-2.267
			c0-0.817,0.133-1.576,0.398-2.267c0.268-0.69,0.644-1.286,1.127-1.791c0.488-0.499,1.07-0.892,1.75-1.174
			c0.678-0.279,1.43-0.423,2.252-0.423c0.83,0,1.584,0.144,2.263,0.423c0.679,0.282,1.26,0.675,1.744,1.174
			c0.483,0.505,0.858,1.101,1.124,1.791S114.768,116.322,114.768,117.141z M112.932,117.141c0-0.637-0.086-1.207-0.257-1.715
			c-0.172-0.504-0.418-0.937-0.737-1.287c-0.319-0.354-0.707-0.628-1.164-0.815c-0.457-0.188-0.969-0.284-1.537-0.284
			c-0.562,0-1.071,0.096-1.528,0.284c-0.454,0.188-0.845,0.461-1.167,0.815c-0.323,0.352-0.57,0.783-0.745,1.287
			c-0.174,0.508-0.261,1.078-0.261,1.715c0,0.642,0.086,1.215,0.261,1.719c0.173,0.51,0.422,0.938,0.745,1.289
			c0.322,0.349,0.712,0.619,1.167,0.806c0.457,0.187,0.966,0.278,1.528,0.278c0.568,0,1.082-0.092,1.537-0.278
			c0.457-0.187,0.844-0.457,1.164-0.806c0.319-0.353,0.565-0.779,0.737-1.289C112.846,118.354,112.932,117.781,112.932,117.141z"/>
	</g>
	<g>
		<path fill="#FFFFFF" d="M120.172,111.609c0.723,0,1.35,0.084,1.878,0.255c0.531,0.169,0.97,0.405,1.315,0.71
			c0.345,0.306,0.602,0.672,0.771,1.097c0.168,0.429,0.254,0.901,0.254,1.418c0,0.528-0.092,1.009-0.271,1.449
			c-0.179,0.438-0.445,0.812-0.798,1.128c-0.354,0.312-0.793,0.561-1.317,0.738c-0.524,0.175-1.137,0.264-1.833,0.264h-1.643v4.002
			h-1.797v-11.061H120.172z M120.172,117.248c0.4,0,0.752-0.053,1.057-0.156c0.306-0.1,0.559-0.246,0.76-0.433
			c0.203-0.187,0.355-0.413,0.459-0.679c0.102-0.269,0.152-0.564,0.152-0.893c0-0.322-0.05-0.611-0.148-0.867
			c-0.102-0.257-0.25-0.474-0.449-0.652c-0.2-0.18-0.452-0.315-0.757-0.411c-0.306-0.093-0.661-0.142-1.072-0.142h-1.644v4.231
			L120.172,117.248L120.172,117.248z"/>
	</g>
</g>
<g>
	<g>
		<g>
			<path fill="#FFFFFF" d="M36.864,146.805c-0.26-0.565-0.391-1.337-0.391-2.283v-17.537H33.32v9.673H23.9v-5.679
				c0-0.791-0.043-1.453-0.13-1.97c-0.09-0.522-0.255-0.944-0.493-1.248c-0.24-0.312-0.569-0.521-0.971-0.627
				c-0.385-0.098-0.869-0.149-1.434-0.149h-3.028v0.898h0.771c0.908,0,1.494,0.271,1.738,0.812c0.261,0.57,0.392,1.339,0.392,2.283
				v17.535H23.9V138.2h9.419v6.321c0,0.821,0.044,1.492,0.13,1.985c0.088,0.515,0.253,0.927,0.493,1.233
				c0.241,0.309,0.567,0.521,0.97,0.623c0.381,0.102,0.863,0.148,1.434,0.148h3.027v-0.896h-0.77
				C37.68,147.617,37.112,147.352,36.864,146.805z"/>
			<path fill="#FFFFFF" d="M58.443,129.659c-0.875-1.028-1.953-1.851-3.201-2.435c-1.244-0.589-2.657-0.885-4.196-0.885
				c-1.538,0-2.951,0.296-4.195,0.885c-1.247,0.584-2.324,1.4-3.202,2.435c-0.879,1.026-1.558,2.252-2.022,3.634
				c-0.464,1.379-0.7,2.88-0.7,4.458c0,1.601,0.236,3.104,0.7,4.474c0.465,1.373,1.144,2.59,2.022,3.619
				c0.879,1.032,1.956,1.848,3.202,2.434c1.246,0.587,2.658,0.883,4.195,0.883c1.539,0,2.95-0.296,4.196-0.883
				c1.246-0.586,2.324-1.402,3.201-2.434c0.877-1.027,1.559-2.244,2.022-3.619c0.466-1.375,0.702-2.879,0.702-4.474
				c0-1.573-0.235-3.071-0.702-4.458C60.001,131.911,59.321,130.688,58.443,129.659z M57.69,137.751
				c0,1.509-0.157,2.894-0.464,4.112c-0.306,1.212-0.751,2.262-1.321,3.119c-0.567,0.85-1.267,1.509-2.083,1.957
				c-0.815,0.451-1.75,0.678-2.776,0.678c-1.028,0-1.961-0.227-2.776-0.678c-0.814-0.448-1.516-1.107-2.083-1.957
				c-0.57-0.857-1.016-1.91-1.321-3.119c-0.307-1.221-0.462-2.604-0.462-4.112c0-1.511,0.155-2.894,0.462-4.114
				c0.307-1.217,0.751-2.264,1.32-3.117c0.566-0.849,1.268-1.511,2.083-1.957c0.814-0.449,1.749-0.68,2.776-0.68
				c1.026,0,1.962,0.229,2.776,0.68c0.816,0.446,1.518,1.108,2.084,1.957c0.568,0.852,1.013,1.9,1.32,3.117
				C57.533,134.857,57.69,136.24,57.69,137.751z"/>
			<path fill="#FFFFFF" d="M77.451,139.948c-0.326-0.429-0.753-0.837-1.266-1.22c-0.509-0.381-1.115-0.776-1.799-1.184l-3.966-2.354
				c-0.568-0.336-1.086-0.666-1.541-0.979c-0.44-0.306-0.814-0.619-1.106-0.933c-0.291-0.312-0.51-0.646-0.654-0.994
				c-0.142-0.348-0.216-0.753-0.216-1.207c0-0.477,0.103-0.909,0.307-1.299c0.203-0.387,0.474-0.723,0.8-0.989
				c0.329-0.271,0.713-0.479,1.146-0.624c0.434-0.146,0.883-0.221,1.336-0.221c1.773,0,3.177,0.457,4.175,1.354
				c1,0.901,1.686,2.438,2.043,4.569l0.018,0.106h0.877V130.4c0-0.633-0.229-1.209-0.677-1.713
				c-0.438-0.494-1.003-0.914-1.682-1.256c-0.673-0.334-1.439-0.594-2.271-0.766c-1.832-0.385-3.64-0.35-5.062,0.132
				c-0.774,0.261-1.451,0.646-2.012,1.138c-0.558,0.492-0.997,1.086-1.304,1.766c-0.306,0.684-0.462,1.458-0.462,2.309
				c0,1.227,0.295,2.278,0.877,3.135c0.575,0.85,1.57,1.697,2.958,2.521l3.965,2.354c1.167,0.68,2.051,1.354,2.626,2.006
				c0.569,0.641,0.857,1.425,0.857,2.334c0,0.509-0.113,0.968-0.337,1.354c-0.225,0.392-0.526,0.728-0.893,0.991
				c-0.372,0.271-0.806,0.477-1.29,0.609c-0.49,0.137-1.013,0.205-1.552,0.205c-1.776,0-3.199-0.469-4.226-1.387
				c-1.031-0.92-1.733-2.469-2.09-4.602l-0.019-0.105h-0.877v3.576c0,0.632,0.234,1.208,0.694,1.712
				c0.45,0.495,1.037,0.923,1.745,1.272c0.706,0.344,1.506,0.611,2.385,0.798c0.876,0.185,1.769,0.276,2.652,0.276
				c1.042,0,1.992-0.144,2.831-0.425c0.84-0.284,1.566-0.7,2.154-1.235c0.593-0.539,1.053-1.188,1.369-1.93
				c0.318-0.744,0.478-1.586,0.478-2.5c0-0.613-0.084-1.17-0.249-1.654C78.032,140.833,77.781,140.371,77.451,139.948z"/>
			<path fill="#FFFFFF" d="M93.723,128.05c-0.849-0.446-1.75-0.735-2.686-0.868c-0.923-0.131-1.743-0.197-2.435-0.197h-8.508v0.898
				h0.772c0.922,0,1.49,0.266,1.738,0.812c0.259,0.568,0.391,1.339,0.391,2.283v17.535h3.155v-8.705h3.42
				c0.312,0,0.703-0.025,1.158-0.078c0.465-0.053,0.969-0.153,1.5-0.295c0.535-0.144,1.074-0.357,1.605-0.639
				c0.533-0.283,1.027-0.658,1.469-1.121c0.438-0.464,0.799-1.035,1.07-1.699c0.275-0.666,0.414-1.479,0.414-2.416
				c0-1.461-0.299-2.646-0.893-3.521C95.307,129.166,94.574,128.494,93.723,128.05z M93.311,133.396
				c0,0.944-0.175,1.744-0.518,2.375c-0.343,0.639-0.771,1.162-1.271,1.557c-0.5,0.396-1.033,0.682-1.586,0.849
				c-0.557,0.171-1.058,0.253-1.495,0.253c-0.405,0-0.827-0.033-1.255-0.096c-0.401-0.057-0.743-0.124-1.036-0.195v-9.477
				c0.297-0.077,0.646-0.143,1.036-0.201c0.428-0.061,0.85-0.093,1.255-0.093c0.438,0,0.938,0.083,1.495,0.251
				c0.551,0.167,1.084,0.451,1.586,0.849c0.5,0.396,0.928,0.921,1.271,1.556C93.137,131.657,93.311,132.458,93.311,133.396z"/>
			<path fill="#FFFFFF" d="M103.786,146.805c-0.259-0.57-0.39-1.339-0.39-2.283v-17.537h-3.155v17.537
				c0,0.817,0.045,1.489,0.132,1.986c0.087,0.516,0.252,0.926,0.491,1.23c0.241,0.312,0.567,0.523,0.971,0.627
				c0.38,0.101,0.863,0.148,1.435,0.148h3.028v-0.896h-0.772C104.605,147.617,104.036,147.352,103.786,146.805z"/>
			<path fill="#FFFFFF" d="M125.025,126.982h-15.117c-0.572,0-1.051,0.082-1.419,0.24c-0.37,0.154-0.669,0.362-0.884,0.611
				c-0.217,0.251-0.366,0.542-0.445,0.875c-0.079,0.32-0.118,0.65-0.118,0.982v2.541h0.897v-0.125c0-1.246,0.338-2.16,1.002-2.723
				c0.672-0.572,1.647-0.857,2.901-0.857h2.774v19.984h3.154v-19.984h7.254V126.982L125.025,126.982z"/>
			<path fill="#FFFFFF" d="M142.428,147.369c-0.311-0.122-0.601-0.312-0.865-0.555c-0.266-0.246-0.513-0.576-0.732-0.985
				c-0.223-0.413-0.458-0.908-0.721-1.519l-7.092-17.246l-0.031-0.082h-1.135l-9.058,21.355l-0.073,0.176h1.725l2.578-6.123h8.855
				l0.773,2.014c0.35,0.935,0.774,1.697,1.266,2.264c0.49,0.564,0.998,1.002,1.516,1.299c0.515,0.297,1.027,0.489,1.522,0.58
				c0.494,0.087,0.927,0.13,1.295,0.13c0.502,0,0.949-0.058,1.325-0.168l0.091-0.026v-0.851l-0.114-0.015
				C143.113,147.577,142.734,147.493,142.428,147.369z M135.13,140.85h-7.519l3.838-8.899L135.13,140.85z"/>
			<path fill="#FFFFFF" d="M149.723,146.975v-15.996c0-0.793-0.046-1.457-0.132-1.97c-0.09-0.522-0.255-0.944-0.493-1.248
				c-0.24-0.312-0.565-0.521-0.969-0.627c-0.387-0.098-0.87-0.149-1.436-0.149h-3.028v0.898h0.772c0.922,0,1.488,0.266,1.737,0.812
				c0.259,0.57,0.392,1.339,0.392,2.283v17.535h14.598v-1.539H149.723L149.723,146.975z"/>
		</g>
	</g>
</g>
</svg>
