<?xml version="1.0" encoding="utf-8"?>
<!-- Generator: Adobe Illustrator 16.0.0, SVG Export Plug-In . SVG Version: 6.00 Build 0)  -->
<!DOCTYPE svg PUBLIC "-//W3C//DTD SVG 1.1//EN" "http://www.w3.org/Graphics/SVG/1.1/DTD/svg11.dtd">
<svg version="1.1" id="Layer_1" xmlns="http://www.w3.org/2000/svg" xmlns:xlink="http://www.w3.org/1999/xlink" x="0px" y="0px"
	 width="177px" height="165px" viewBox="0 0 177 165" enable-background="new 0 0 177 165" xml:space="preserve">
<g>
	<path fill="#009944" d="M62.675,16.084c0,0-2.716,18.24,4.397,32.037c8.06,15.636,24.815,7.642,17.736-8.461
		C78.56,25.45,62.675,16.084,62.675,16.084z"/>
	<path fill="#007A60" d="M29.868,54.194c0,0,12.024,13.983,27.112,17.625c17.1,4.129,22.012-13.776,5.198-18.952
		C47.342,48.302,29.868,54.194,29.868,54.194z"/>
	<g id="XMLID_3_">
		<polyline id="XMLID_4_" fill="#5F3C31" points="77.984,99.802 80.827,70.299 75.258,70.299 75.258,64.617 80.602,64.617 
			80.611,58.591 86.514,58.591 86.514,99.802 		"/>
	</g>
	<path fill="#6CC04A" d="M113.589,16.084c0,0,2.717,18.24-4.395,32.037c-8.06,15.636-24.818,7.642-17.736-8.461
		C97.704,25.45,113.589,16.084,113.589,16.084z"/>
	<path fill="#C4E86B" d="M146.397,54.194c0,0-12.023,13.983-27.111,17.625c-17.1,4.129-22.01-13.776-5.198-18.952
		C128.923,48.302,146.397,54.194,146.397,54.194z"/>
	<g id="XMLID_1_">
		<polyline id="XMLID_2_" fill="#5F3C31" points="98.282,99.802 95.438,70.299 101.008,70.299 101.008,64.617 95.665,64.617 
			95.652,58.591 89.752,58.591 89.752,99.802 		"/>
	</g>
</g>
<g>
	<g>
		<path fill="#4B4F54" d="M63.314,113.107h-3.449v9.562h-1.79v-9.562H54.62v-1.497h8.694V113.107z"/>
	</g>
	<g>
		<path fill="#4B4F54" d="M73.266,122.67h-1.603c-0.319,0-0.549-0.125-0.692-0.371l-2.581-3.722
			c-0.087-0.129-0.183-0.22-0.283-0.277c-0.103-0.058-0.257-0.084-0.462-0.084h-0.997v4.454H64.85v-11.06h3.257
			c0.726,0,1.352,0.074,1.877,0.223c0.524,0.148,0.956,0.36,1.294,0.634c0.337,0.274,0.587,0.602,0.748,0.987
			c0.162,0.385,0.242,0.81,0.242,1.281c0,0.385-0.058,0.743-0.172,1.075c-0.117,0.333-0.281,0.634-0.499,0.906
			c-0.219,0.271-0.486,0.507-0.804,0.708c-0.315,0.198-0.678,0.356-1.082,0.466c0.22,0.134,0.41,0.323,0.568,0.562L73.266,122.67z
			 M68.059,116.91c0.41,0,0.769-0.05,1.076-0.15c0.308-0.101,0.563-0.239,0.769-0.418c0.204-0.18,0.358-0.395,0.459-0.641
			c0.103-0.249,0.154-0.526,0.154-0.827c0-0.605-0.198-1.064-0.599-1.382c-0.398-0.318-1.003-0.476-1.811-0.476h-1.459v3.894H68.059
			z"/>
	</g>
	<g>
		<path fill="#4B4F54" d="M81.507,121.219L81.5,122.67h-6.897v-11.06H81.5v1.451h-5.092v3.333h4.07v1.405h-4.07v3.419H81.507z"/>
	</g>
	<g>
		<path fill="#4B4F54" d="M90.352,121.219l-0.006,1.451H83.45v-11.06h6.896v1.451h-5.092v3.333h4.07v1.405h-4.07v3.419H90.352z"/>
	</g>
	<g>
		<path fill="#4B4F54" d="M103.27,113.107h-3.449v9.562h-1.789v-9.562h-3.455v-1.497h8.692V113.107z"/>
	</g>
	<g>
		<path fill="#4B4F54" d="M114.767,117.14c0,0.818-0.134,1.573-0.4,2.267c-0.264,0.691-0.64,1.286-1.124,1.783
			c-0.484,0.5-1.065,0.89-1.744,1.172c-0.678,0.282-1.432,0.423-2.262,0.423c-0.823,0-1.575-0.141-2.253-0.423
			c-0.679-0.282-1.261-0.672-1.749-1.172c-0.484-0.497-0.86-1.092-1.127-1.783c-0.267-0.693-0.399-1.448-0.399-2.267
			c0-0.817,0.133-1.575,0.399-2.266c0.267-0.691,0.643-1.286,1.127-1.791c0.488-0.499,1.07-0.892,1.749-1.174
			c0.678-0.279,1.43-0.423,2.253-0.423c0.83,0,1.584,0.144,2.262,0.423c0.679,0.282,1.26,0.675,1.744,1.174
			c0.484,0.505,0.859,1.1,1.124,1.791C114.633,115.564,114.767,116.322,114.767,117.14z M112.931,117.14
			c0-0.636-0.085-1.207-0.256-1.714c-0.172-0.504-0.418-0.937-0.737-1.288c-0.32-0.354-0.708-0.627-1.165-0.815
			c-0.456-0.188-0.968-0.284-1.536-0.284c-0.563,0-1.072,0.096-1.529,0.284c-0.454,0.188-0.844,0.461-1.167,0.815
			c-0.323,0.352-0.571,0.784-0.745,1.288c-0.174,0.507-0.261,1.078-0.261,1.714c0,0.642,0.086,1.215,0.261,1.72
			c0.173,0.509,0.422,0.937,0.745,1.288c0.323,0.349,0.712,0.619,1.167,0.806c0.457,0.187,0.966,0.279,1.529,0.279
			c0.568,0,1.081-0.093,1.536-0.279c0.457-0.187,0.844-0.457,1.165-0.806c0.319-0.352,0.565-0.779,0.737-1.288
			C112.846,118.354,112.931,117.781,112.931,117.14z"/>
	</g>
	<g>
		<path fill="#4B4F54" d="M120.172,111.61c0.723,0,1.35,0.084,1.878,0.254c0.531,0.169,0.969,0.406,1.315,0.71
			c0.345,0.306,0.602,0.672,0.771,1.097c0.168,0.429,0.254,0.901,0.254,1.418c0,0.528-0.091,1.009-0.27,1.449
			c-0.179,0.438-0.445,0.812-0.798,1.128c-0.354,0.313-0.792,0.56-1.317,0.738c-0.525,0.175-1.137,0.264-1.833,0.264h-1.643v4.002
			h-1.797v-11.06H120.172z M120.172,117.248c0.4,0,0.752-0.053,1.056-0.156c0.306-0.1,0.559-0.246,0.761-0.433
			s0.355-0.413,0.458-0.679c0.102-0.268,0.153-0.564,0.153-0.892c0-0.322-0.05-0.612-0.149-0.868
			c-0.101-0.256-0.25-0.473-0.449-0.652c-0.2-0.18-0.452-0.315-0.757-0.411c-0.305-0.093-0.661-0.141-1.072-0.141h-1.643v4.231
			H120.172z"/>
	</g>
</g>
<g>
	<g>
		<g>
			<path fill="#4B4F54" d="M36.864,146.805c-0.26-0.566-0.391-1.337-0.391-2.283v-17.538h-3.153v9.673H23.9v-5.678
				c0-0.791-0.043-1.453-0.13-1.97c-0.09-0.523-0.255-0.944-0.493-1.248c-0.24-0.313-0.569-0.521-0.971-0.627
				c-0.385-0.098-0.869-0.15-1.434-0.15h-3.028v0.899h0.771c0.908,0,1.494,0.272,1.738,0.812c0.261,0.571,0.392,1.339,0.392,2.283
				v17.535H23.9V138.2h9.419v6.321c0,0.822,0.044,1.492,0.13,1.986c0.088,0.515,0.253,0.926,0.493,1.233
				c0.241,0.309,0.567,0.521,0.97,0.624c0.381,0.101,0.863,0.148,1.434,0.148h3.027v-0.896h-0.77
				C37.68,147.617,37.112,147.352,36.864,146.805z"/>
			<path fill="#4B4F54" d="M58.443,129.659c-0.875-1.028-1.953-1.851-3.201-2.435c-1.244-0.588-2.657-0.884-4.196-0.884
				c-1.538,0-2.951,0.296-4.195,0.884c-1.247,0.584-2.324,1.401-3.202,2.435c-0.879,1.027-1.558,2.252-2.022,3.634
				c-0.464,1.379-0.7,2.88-0.7,4.458c0,1.6,0.236,3.105,0.7,4.473c0.465,1.373,1.144,2.59,2.022,3.62
				c0.879,1.032,1.956,1.848,3.202,2.434c1.246,0.586,2.658,0.882,4.195,0.882c1.539,0,2.95-0.296,4.196-0.882
				s2.324-1.403,3.201-2.434c0.877-1.028,1.559-2.245,2.022-3.62c0.466-1.374,0.702-2.878,0.702-4.473
				c0-1.573-0.235-3.072-0.702-4.458C60.001,131.911,59.321,130.687,58.443,129.659z M57.69,137.751
				c0,1.509-0.157,2.893-0.464,4.112c-0.306,1.212-0.751,2.262-1.321,3.119c-0.567,0.85-1.267,1.509-2.083,1.958
				c-0.815,0.45-1.75,0.677-2.776,0.677c-1.028,0-1.961-0.227-2.776-0.677c-0.814-0.449-1.516-1.108-2.083-1.958
				c-0.57-0.857-1.016-1.91-1.321-3.119c-0.307-1.22-0.462-2.604-0.462-4.112c0-1.511,0.155-2.893,0.462-4.114
				c0.307-1.217,0.751-2.264,1.32-3.117c0.566-0.849,1.268-1.511,2.083-1.958c0.814-0.449,1.749-0.679,2.776-0.679
				c1.026,0,1.962,0.229,2.776,0.679c0.816,0.447,1.518,1.109,2.084,1.958c0.568,0.851,1.013,1.9,1.32,3.117
				C57.533,134.858,57.69,136.24,57.69,137.751z"/>
			<path fill="#4B4F54" d="M77.451,139.948c-0.326-0.428-0.753-0.837-1.266-1.22c-0.509-0.38-1.115-0.776-1.799-1.183l-3.966-2.353
				c-0.568-0.337-1.086-0.667-1.541-0.98c-0.44-0.306-0.814-0.619-1.106-0.933c-0.291-0.311-0.51-0.646-0.654-0.994
				c-0.142-0.347-0.216-0.753-0.216-1.207c0-0.476,0.103-0.909,0.307-1.299c0.203-0.387,0.474-0.722,0.8-0.989
				c0.329-0.271,0.713-0.479,1.146-0.624c0.434-0.146,0.883-0.22,1.336-0.22c1.773,0,3.177,0.456,4.175,1.353
				c1,0.901,1.686,2.438,2.043,4.569l0.018,0.107h0.877v-3.574c0-0.634-0.229-1.21-0.677-1.714
				c-0.438-0.493-1.003-0.913-1.682-1.256c-0.673-0.334-1.439-0.593-2.271-0.765c-1.832-0.385-3.64-0.349-5.062,0.132
				c-0.774,0.261-1.451,0.646-2.012,1.138c-0.558,0.492-0.997,1.085-1.304,1.765c-0.306,0.684-0.462,1.458-0.462,2.309
				c0,1.227,0.295,2.278,0.877,3.135c0.575,0.849,1.57,1.697,2.958,2.521l3.965,2.353c1.167,0.68,2.051,1.355,2.626,2.006
				c0.569,0.641,0.857,1.425,0.857,2.334c0,0.509-0.113,0.968-0.337,1.355c-0.225,0.392-0.526,0.727-0.893,0.991
				c-0.372,0.271-0.806,0.477-1.29,0.61c-0.49,0.136-1.013,0.205-1.552,0.205c-1.776,0-3.199-0.469-4.226-1.387
				c-1.031-0.92-1.733-2.469-2.09-4.602l-0.019-0.105h-0.877v3.576c0,0.632,0.234,1.208,0.694,1.712
				c0.45,0.495,1.037,0.923,1.745,1.272c0.706,0.344,1.506,0.611,2.385,0.798c0.876,0.185,1.769,0.277,2.652,0.277
				c1.042,0,1.992-0.144,2.831-0.425c0.84-0.285,1.566-0.701,2.154-1.236c0.593-0.538,1.053-1.188,1.369-1.93
				c0.318-0.743,0.478-1.585,0.478-2.5c0-0.612-0.084-1.169-0.249-1.654C78.032,140.833,77.781,140.371,77.451,139.948z"/>
			<path fill="#4B4F54" d="M93.722,128.05c-0.848-0.447-1.75-0.736-2.685-0.868c-0.923-0.131-1.743-0.198-2.435-0.198h-8.508v0.899
				h0.772c0.922,0,1.49,0.265,1.738,0.812c0.259,0.569,0.391,1.339,0.391,2.283v17.535h3.155v-8.704h3.42
				c0.312,0,0.703-0.026,1.159-0.079c0.464-0.053,0.968-0.153,1.499-0.294c0.536-0.144,1.075-0.358,1.606-0.639
				c0.533-0.284,1.027-0.659,1.469-1.121c0.438-0.464,0.799-1.035,1.07-1.699c0.275-0.667,0.414-1.48,0.414-2.417
				c0-1.461-0.299-2.645-0.892-3.521C95.306,129.166,94.574,128.494,93.722,128.05z M93.311,133.397
				c0,0.944-0.175,1.743-0.518,2.374c-0.343,0.639-0.771,1.162-1.271,1.557c-0.5,0.396-1.034,0.682-1.587,0.849
				c-0.556,0.17-1.057,0.253-1.494,0.253c-0.405,0-0.827-0.033-1.255-0.096c-0.401-0.057-0.743-0.124-1.036-0.195v-9.477
				c0.297-0.077,0.646-0.142,1.036-0.201c0.428-0.06,0.85-0.093,1.255-0.093c0.438,0,0.938,0.083,1.494,0.251
				c0.551,0.167,1.085,0.451,1.587,0.849c0.5,0.395,0.927,0.92,1.271,1.556C93.136,131.657,93.311,132.458,93.311,133.397z"/>
			<path fill="#4B4F54" d="M103.786,146.805c-0.258-0.571-0.39-1.339-0.39-2.283v-17.538h-3.155v17.538
				c0,0.817,0.045,1.489,0.132,1.986c0.087,0.515,0.252,0.926,0.491,1.231c0.241,0.311,0.568,0.523,0.971,0.626
				c0.38,0.101,0.863,0.148,1.435,0.148h3.028v-0.896h-0.772C104.605,147.617,104.036,147.352,103.786,146.805z"/>
			<path fill="#4B4F54" d="M125.026,126.983h-15.118c-0.572,0-1.051,0.081-1.419,0.239c-0.37,0.155-0.668,0.363-0.884,0.612
				c-0.216,0.251-0.366,0.542-0.445,0.875c-0.079,0.32-0.118,0.65-0.118,0.982v2.541h0.897v-0.124c0-1.246,0.338-2.161,1.003-2.723
				c0.671-0.572,1.647-0.858,2.901-0.858h2.774v19.985h3.155v-19.985h7.253V126.983z"/>
			<path fill="#4B4F54" d="M142.428,147.369c-0.311-0.122-0.601-0.312-0.865-0.555c-0.266-0.246-0.513-0.576-0.733-0.985
				c-0.222-0.413-0.458-0.908-0.72-1.518l-7.092-17.247l-0.031-0.081h-1.135l-9.058,21.355l-0.074,0.175h1.725l2.579-6.122h8.855
				l0.774,2.013c0.349,0.935,0.774,1.697,1.265,2.264c0.49,0.564,0.998,1.002,1.515,1.299c0.515,0.296,1.028,0.489,1.523,0.58
				c0.494,0.087,0.927,0.13,1.295,0.13c0.502,0,0.949-0.058,1.325-0.168l0.091-0.026v-0.851l-0.114-0.015
				C143.114,147.577,142.735,147.493,142.428,147.369z M135.13,140.85h-7.518l3.837-8.9L135.13,140.85z"/>
			<path fill="#4B4F54" d="M149.722,146.975v-15.996c0-0.794-0.045-1.458-0.131-1.97c-0.09-0.523-0.255-0.944-0.493-1.248
				c-0.241-0.313-0.566-0.521-0.969-0.627c-0.387-0.098-0.87-0.15-1.436-0.15h-3.028v0.899h0.772c0.922,0,1.489,0.265,1.738,0.812
				c0.259,0.571,0.392,1.339,0.392,2.283v17.535h14.597v-1.539H149.722z"/>
		</g>
	</g>
</g>
</svg>
